<?xml version="1.0" standalone="no"?>
<!DOCTYPE svg PUBLIC "-//W3C//DTD SVG 20010904//EN"
 "http://www.w3.org/TR/2001/REC-SVG-20010904/DTD/svg10.dtd">
<svg version="1.0" xmlns="http://www.w3.org/2000/svg"
 width="1592.000000pt" height="1592.000000pt" viewBox="0 0 1592.000000 1592.000000"
 preserveAspectRatio="xMidYMid meet">

<g transform="translate(0.000000,1592.000000) scale(0.100000,-0.100000)"
fill="#000000" stroke="none">
<path d="M9226 13701 c-4 -5 -11 -56 -16 -113 -12 -116 -49 -308 -60 -308 -4
0 -24 25 -44 55 -20 30 -43 55 -50 55 -8 0 -31 -24 -52 -52 -69 -96 -195 -217
-271 -262 -7 -4 17 55 53 131 77 160 83 180 59 189 -32 12 -228 -16 -385 -55
-170 -42 -275 -80 -390 -143 -91 -49 -278 -176 -339 -230 -24 -21 -54 -40 -65
-43 -272 -57 -489 -128 -653 -211 -68 -35 -123 -59 -123 -54 0 12 162 159 242
219 36 28 105 75 152 106 47 30 86 60 86 65 0 39 -83 8 -249 -95 -174 -107
-373 -279 -454 -392 -17 -24 -31 -42 -33 -40 -1 1 15 58 36 127 26 86 34 129
27 138 -14 18 -31 15 -57 -13 -35 -37 -179 -128 -380 -240 -96 -53 -211 -121
-255 -150 -163 -107 -301 -244 -420 -418 -30 -45 -55 -76 -55 -71 0 19 61 195
97 278 19 44 54 116 79 158 47 82 52 103 29 111 -18 8 -99 -82 -170 -188 -129
-195 -196 -388 -213 -614 l-7 -94 -63 92 c-43 61 -69 91 -80 89 -10 -2 -35
-45 -62 -105 -25 -56 -48 -104 -52 -108 -9 -10 -68 149 -89 245 -39 167 -45
172 -113 77 -65 -91 -133 -239 -162 -354 -45 -176 -43 -409 5 -563 l19 -59
-57 -16 c-216 -61 -377 -158 -551 -334 -123 -124 -193 -228 -246 -361 -34 -87
-29 -100 33 -100 52 0 213 17 251 27 21 5 19 -3 -34 -108 -168 -336 -248 -691
-261 -1159 -11 -417 38 -846 158 -1385 l40 -180 -60 -61 c-132 -136 -191 -328
-192 -624 0 -304 77 -698 187 -957 61 -143 92 -196 193 -333 46 -63 122 -167
167 -231 150 -210 254 -275 477 -295 42 -4 77 -8 77 -11 0 -23 115 -567 131
-618 33 -107 115 -292 166 -374 122 -195 347 -456 631 -732 159 -156 340 -300
512 -409 47 -30 89 -57 94 -61 4 -4 -10 -17 -32 -28 -44 -23 -146 -150 -222
-279 -24 -40 -46 -75 -49 -77 -9 -5 -1008 -191 -1176 -219 -82 -14 -177 -28
-210 -31 -200 -21 -354 -77 -494 -180 l-64 -47 84 -49 c46 -27 88 -49 92 -49
5 0 37 16 71 35 91 51 166 74 296 91 161 21 448 71 915 159 220 41 403 75 407
75 3 0 9 -18 13 -40 17 -100 186 -388 371 -632 93 -123 314 -394 376 -460 41
-45 46 -47 112 -53 l69 -7 -89 99 c-236 260 -471 578 -565 765 -57 114 -89
216 -89 287 0 52 6 73 48 155 27 51 81 139 121 195 72 100 73 101 138 121 36
11 71 20 79 20 8 0 50 -24 94 -52 66 -44 80 -58 80 -79 0 -38 -15 -46 -100
-54 -74 -7 -75 -6 -104 24 -30 31 -59 40 -71 21 -11 -18 48 -123 94 -168 54
-51 305 -255 406 -329 206 -150 452 -288 699 -393 l48 -20 -33 -39 c-27 -32
-41 -39 -69 -39 -32 -1 -33 0 -12 10 54 26 1 65 -68 49 -94 -21 -163 -86 -229
-219 -28 -56 -131 -349 -131 -373 0 -5 22 -9 48 -9 l49 0 18 60 c10 33 21 60
25 60 4 0 20 -29 35 -64 l27 -63 66 -7 c87 -8 511 -8 579 0 51 7 53 8 94 70
23 35 44 64 48 64 4 0 20 -27 36 -60 l29 -60 48 0 c36 0 48 4 48 15 0 24 -164
342 -220 428 -59 88 -108 127 -174 134 -63 7 -96 -3 -96 -28 0 -17 -4 -20 -22
-15 -13 3 -34 6 -48 6 l-25 0 30 21 c17 11 122 67 235 124 202 102 412 233
600 372 131 97 328 266 367 314 53 67 79 159 44 159 -5 0 -23 -11 -39 -25 -29
-24 -33 -25 -99 -15 -37 5 -74 10 -80 10 -8 0 -13 14 -13 35 0 32 6 38 77 86
l77 52 71 -18 c38 -10 80 -21 93 -26 28 -11 113 -141 182 -279 85 -169 80
-249 -25 -460 -94 -188 -323 -503 -575 -790 l-54 -63 69 8 c66 7 71 9 110 53
141 160 321 401 505 677 121 181 181 290 202 369 7 27 18 50 24 53 6 2 107
-14 225 -37 315 -59 726 -126 959 -155 245 -31 300 -44 406 -97 l81 -40 81 47
c45 25 84 50 86 54 7 10 -139 106 -209 136 -94 42 -190 63 -409 90 -239 30
-676 101 -1041 170 l-250 48 -50 91 c-109 198 -170 275 -238 298 l-37 13 144
102 c446 315 911 785 1111 1124 111 188 163 353 251 792 l37 187 41 0 c79 1
198 29 272 64 90 43 145 95 244 236 41 58 113 158 161 222 49 65 103 146 123
180 180 326 302 942 256 1297 -24 186 -91 349 -180 439 l-52 53 21 142 c56
385 101 888 101 1142 0 55 3 137 6 181 l7 82 86 25 c47 14 119 35 159 47 58
17 72 25 72 41 0 30 -50 133 -118 243 l-61 100 20 25 c81 105 115 156 149 226
43 87 62 155 49 176 -5 9 -53 16 -146 22 -76 5 -139 10 -141 12 -1 1 24 58 57
126 104 220 168 412 142 428 -7 4 -69 -5 -138 -21 -69 -15 -128 -27 -130 -25
-1 2 9 37 23 78 34 99 78 283 101 416 14 86 18 163 18 380 0 186 -4 276 -11
283 -8 8 -39 -1 -114 -35 -99 -44 -230 -97 -230 -92 0 2 16 40 35 87 68 161
136 425 151 591 8 95 -5 105 -68 52 -109 -91 -328 -218 -328 -190 0 8 11 69
25 137 14 67 22 126 19 131 -9 15 -31 10 -130 -31 -100 -41 -195 -73 -201 -66
-2 2 3 32 11 67 22 95 42 317 29 330 -7 7 -42 -4 -109 -34 -102 -45 -203 -82
-208 -76 -1 2 -12 58 -25 123 -53 281 -186 626 -320 833 -70 108 -91 106 -110
-10 -6 -39 -32 -156 -57 -258 l-45 -187 -42 -16 c-24 -9 -47 -16 -51 -16 -5 0
-7 88 -4 198 2 108 2 231 -1 272 l-6 75 -42 -2 c-22 -1 -65 -12 -95 -24 -66
-28 -237 -129 -290 -171 -21 -17 -41 -28 -43 -26 -3 2 -16 44 -30 94 -56 194
-182 412 -302 524 -72 67 -95 80 -107 61z m-2716 -6865 c0 -61 -89 -113 -148
-87 -38 18 -82 88 -64 105 3 3 52 6 109 6 102 0 103 0 103 -24z m2770 0 c0
-36 -45 -84 -86 -92 -60 -11 -112 25 -128 89 l-6 27 110 0 c110 0 110 0 110
-24z m-3135 -3 c-36 -88 -32 -211 8 -290 39 -76 80 -118 148 -152 119 -59 220
-61 327 -7 66 34 104 67 141 124 59 93 74 217 36 309 l-14 33 73 0 c65 0 78
-3 113 -29 49 -36 126 -136 167 -220 l31 -63 -35 -30 c-95 -81 -272 -163 -429
-200 -126 -29 -395 -36 -516 -13 -193 36 -346 132 -441 275 l-26 39 25 43 c38
65 94 125 141 153 40 24 126 41 220 44 33 1 37 -2 31 -16z m2770 0 c-36 -88
-32 -211 8 -290 39 -76 80 -118 148 -152 119 -59 220 -61 327 -7 66 34 104 67
141 124 59 93 74 217 36 309 -13 32 -13 33 8 33 67 0 191 -22 224 -39 44 -22
118 -97 157 -160 l27 -42 -36 -49 c-89 -121 -215 -207 -372 -252 -69 -20 -100
-23 -273 -23 -204 0 -290 11 -425 57 -107 36 -245 111 -323 178 l-23 19 27 53
c54 108 140 214 199 246 11 6 51 12 89 12 61 0 67 -2 61 -17z m-2076 -2773
c527 -106 1059 -128 1611 -64 149 17 400 57 498 79 95 22 98 22 72 -22 -12
-21 -50 -75 -84 -120 -65 -87 -75 -94 -196 -127 -214 -57 -407 -77 -812 -83
-457 -7 -687 11 -943 74 -122 29 -125 31 -214 151 -55 73 -96 142 -85 142 4 0
73 -13 153 -30z"/>
</g>
</svg>
